<?xml version="1.0" encoding="UTF-8" standalone="no"?>
<!-- Created with Inkscape (http://www.inkscape.org/) -->

<svg
   xmlns:dc="http://purl.org/dc/elements/1.1/"
   xmlns:cc="http://creativecommons.org/ns#"
   xmlns:rdf="http://www.w3.org/1999/02/22-rdf-syntax-ns#"
   xmlns:svg="http://www.w3.org/2000/svg"
   xmlns="http://www.w3.org/2000/svg"
   xmlns:sodipodi="http://sodipodi.sourceforge.net/DTD/sodipodi-0.dtd"
   xmlns:inkscape="http://www.inkscape.org/namespaces/inkscape"
   id="svg3336"
   version="1.1"
   inkscape:version="0.91 r13725"
   width="123.86446"
   height="116.60759"
   viewBox="0 0 123.86446 116.60759"
   sodipodi:docname="cat.svg">
  <metadata
     id="metadata3342">
    <rdf:RDF>
      <cc:Work
         rdf:about="">
        <dc:format>image/svg+xml</dc:format>
        <dc:type
           rdf:resource="http://purl.org/dc/dcmitype/StillImage" />
        <dc:title />
      </cc:Work>
    </rdf:RDF>
  </metadata>
  <defs
     id="defs3340" />
  <sodipodi:namedview
     pagecolor="#ffffff"
     bordercolor="#666666"
     borderopacity="1"
     objecttolerance="10"
     gridtolerance="10"
     guidetolerance="10"
     inkscape:pageopacity="0"
     inkscape:pageshadow="2"
     inkscape:window-width="1233"
     inkscape:window-height="755"
     id="namedview3338"
     showgrid="false"
     inkscape:zoom="4"
     inkscape:cx="12.62518"
     inkscape:cy="40.247314"
     inkscape:window-x="47"
     inkscape:window-y="0"
     inkscape:window-maximized="1"
     inkscape:current-layer="layer1"
     inkscape:snap-grids="true"
     fit-margin-top="0"
     fit-margin-left="0"
     fit-margin-right="0"
     fit-margin-bottom="0" />
  <g
     inkscape:groupmode="layer"
     id="layer2"
     inkscape:label="back"
     style="display:inline"
     transform="translate(-37.476662,-26.570251)">
    <ellipse
       style="fill:#ffffff"
       id="path3361"
       cx="99.40889"
       cy="84.809273"
       rx="61.932228"
       ry="58.239021" />
  </g>
  <path
     style="fill:#000000"
     d=""
     id="path3354"
     inkscape:connector-curvature="0" />
  <path
     style="fill:#000000"
     d=""
     id="path3352"
     inkscape:connector-curvature="0" />
  <path
     style="fill:#000000"
     d=""
     id="path3350"
     inkscape:connector-curvature="0" />
  <path
     style="fill:#000000"
     d=""
     id="path3348"
     inkscape:connector-curvature="0" />
  <path
     style="fill:#000000"
     d=""
     id="path3346"
     inkscape:connector-curvature="0" />
  <g
     inkscape:groupmode="layer"
     id="layer1"
     inkscape:label="cat"
     style="display:inline"
     transform="translate(-37.476662,-26.570251)">
    <path
       style="fill:#6a86ba;fill-opacity:1"
       d="m 92.282982,142.91347 c -18.753623,-1.8592 -36.038703,-12.00896 -46.240639,-27.15244 -1.321943,-1.96226 -1.332651,-3.80092 -0.05637,-9.67953 0.261435,-1.20418 0.842634,-3.99565 1.291555,-6.203298 0.448922,-2.207641 1.710823,-5.984351 2.804219,-8.392691 4.56952,-10.06488 5.634847,-11.60494 10.096738,-14.59597 7.110596,-4.7666 10.080036,-7.575069 10.652802,-10.075325 0.293731,-1.28219 1.554267,-4.301714 2.80119,-6.71005 1.246928,-2.408335 3.032585,-5.856634 3.968133,-7.662887 2.052582,-3.962913 4.654671,-4.747819 6.877365,-2.074522 1.412199,1.698493 1.429412,1.700121 2.643998,0.250025 0.6724,-0.802779 2.087754,-3.155567 3.145236,-5.228418 1.057478,-2.07285 2.565368,-4.317266 3.350867,-4.987588 1.344921,-1.147723 1.500567,-1.114589 2.669989,0.568389 0.972136,1.399046 1.213118,3.512363 1.109639,9.731281 -0.17209,10.341324 0.423152,11.727081 5.276096,12.283287 2.04359,0.234222 8.03329,1.417021 13.31043,2.628444 10.01276,2.298539 14.04993,4.337061 16.24346,8.20196 1.60528,2.828424 13.71996,11.468084 16.08073,11.468084 0.42062,0 1.48608,0.73893 2.36769,1.64205 1.26783,1.29877 1.71749,3.05074 2.1509,8.38046 0.52749,6.486809 0.46814,6.868329 -1.5893,10.217189 -1.17548,1.91332 -3.45657,4.98057 -5.06908,6.81611 -2.60307,2.9631 -3.53487,3.4746 -8.30932,4.56125 -2.9576,0.67314 -5.92034,1.2239 -6.58386,1.2239 -1.5492,0 -6.14217,4.44891 -9.41787,9.12249 -1.97744,2.82131 -2.68161,4.76514 -3.1044,8.56975 l -0.54681,4.92074 -3.11323,0.7905 c -2.71707,0.68991 -15.773027,2.26269 -16.830052,2.02742 -0.21283,-0.0474 -2.903891,-0.33563 -5.980111,-0.64061 z"
       id="path3356"
       inkscape:connector-curvature="0" />
  </g>
</svg>
