<?xml version="1.0" encoding="UTF-8" standalone="no"?>
<!-- Created with Inkscape (http://www.inkscape.org/) -->

<svg
   xmlns:dc="http://purl.org/dc/elements/1.1/"
   xmlns:cc="http://creativecommons.org/ns#"
   xmlns:rdf="http://www.w3.org/1999/02/22-rdf-syntax-ns#"
   xmlns:svg="http://www.w3.org/2000/svg"
   xmlns="http://www.w3.org/2000/svg"
   xmlns:sodipodi="http://sodipodi.sourceforge.net/DTD/sodipodi-0.dtd"
   xmlns:inkscape="http://www.inkscape.org/namespaces/inkscape"
   id="svg4272"
   version="1.1"
   inkscape:version="0.91 r13725"
   width="69.81675"
   height="85.226578"
   viewBox="0 0 69.81675 85.226578"
   sodipodi:docname="paint.svg">
  <metadata
     id="metadata4278">
    <rdf:RDF>
      <cc:Work
         rdf:about="">
        <dc:format>image/svg+xml</dc:format>
        <dc:type
           rdf:resource="http://purl.org/dc/dcmitype/StillImage" />
        <dc:title></dc:title>
      </cc:Work>
    </rdf:RDF>
  </metadata>
  <defs
     id="defs4276" />
  <sodipodi:namedview
     pagecolor="#ffffff"
     bordercolor="#666666"
     borderopacity="1"
     objecttolerance="10"
     gridtolerance="10"
     guidetolerance="10"
     inkscape:pageopacity="0"
     inkscape:pageshadow="2"
     inkscape:window-width="1233"
     inkscape:window-height="755"
     id="namedview4274"
     showgrid="false"
     fit-margin-top="0"
     fit-margin-left="0"
     fit-margin-right="0"
     fit-margin-bottom="0"
     inkscape:zoom="5.0850575"
     inkscape:cx="32.057987"
     inkscape:cy="36.751216"
     inkscape:window-x="47"
     inkscape:window-y="0"
     inkscape:window-maximized="1"
     inkscape:current-layer="svg4272" />
  <path
     style="fill:#6a86ba;fill-opacity:1"
     d="m 24.478067,83.936546 c -4.256483,-2.359189 -5.056671,-5.251087 -5.09479,-18.412641 l -0.03557,-12.283895 -3.262908,1.989434 c -1.7946,1.094188 -4.075972,1.991121 -5.069716,1.993186 C 7.833751,57.22913 3.600663,54.395255 2.468594,51.500892 1.861285,49.948194 1.063891,37.807455 0.685099,24.346313 L 0,0 34.908372,0 69.816747,0 69.342945,17.820497 c -0.516732,19.435489 -1.388541,22.919559 -6.294421,25.154825 -3.455911,1.574618 -5.042476,1.513395 -8.611675,-0.33231 l -2.962053,-1.531739 0,10.617342 c 0,12.059873 -1.183618,15.540547 -5.956997,17.517744 -1.671873,0.692514 -4.178009,0.973435 -5.569188,0.624271 -2.392812,-0.600556 -2.529418,-0.414233 -2.529418,3.450029 0,5.142521 -2.095823,9.269288 -5.49379,10.8175 -3.288255,1.498231 -4.436526,1.467148 -7.447332,-0.201613 z"
     id="path4282"
     inkscape:connector-curvature="0" />
</svg>
